<svg focusable="false" width="16" height="16" viewBox="0 0 16 16" fill="none"><path d="M8 1.442c2.136 0 2.389.008 3.232.046.78.036 1.204.167 1.486.276.373.145.64.318.92.599s.453.546.599.92c.11.281.24.705.275 1.485.038.843.047 1.096.047 3.233s-.008 2.389-.047 3.232c-.036.78-.166 1.204-.275 1.486-.146.373-.319.64-.6.92a2.5 2.5 0 0 1-.919.598c-.282.11-.706.24-1.486.276-.843.038-1.096.047-3.233.047s-2.389-.008-3.232-.047c-.78-.036-1.204-.166-1.486-.276a2.5 2.5 0 0 1-.92-.598 2.5 2.5 0 0 1-.598-.92c-.11-.282-.24-.705-.276-1.486-.038-.843-.047-1.096-.047-3.232s.008-2.39.047-3.233c.036-.78.166-1.204.276-1.485a2.5 2.5 0 0 1 .598-.92c.28-.28.547-.454.92-.599.282-.11.706-.24 1.486-.276.843-.038 1.096-.046 3.232-.046M8 0C5.826 0 5.553.01 4.7.048 3.85.087 3.269.222 2.76.42a3.9 3.9 0 0 0-1.417.923c-.445.444-.718.89-.922 1.417C.222 3.268.087 3.85.048 4.7.009 5.555 0 5.827 0 8s.01 2.445.048 3.299c.039.851.174 1.433.372 1.941.204.527.478.973.922 1.417s.89.72 1.417.923c.509.198 1.09.333 1.942.372.853.039 1.126.048 3.298.048s2.446-.01 3.299-.048c.851-.039 1.433-.174 1.942-.372a3.9 3.9 0 0 0 1.417-.923 3.9 3.9 0 0 0 .923-1.417c.197-.508.333-1.09.371-1.941.04-.854.048-1.126.048-3.299s-.009-2.445-.048-3.299c-.038-.851-.174-1.433-.371-1.941a3.9 3.9 0 0 0-.923-1.417A3.9 3.9 0 0 0 13.24.42c-.51-.198-1.09-.333-1.942-.372C10.445.009 10.172 0 7.999 0" fill="currentColor"/><path d="M8 3.892a4.108 4.108 0 1 0 0 8.217 4.108 4.108 0 0 0 0-8.217m0 6.775a2.667 2.667 0 1 1 0-5.334 2.667 2.667 0 0 1 0 5.334m5.23-6.937a.96.96 0 1 1-1.92 0 .96.96 0 0 1 1.92 0" fill="currentColor"/></svg>