<svg focusable="false" width="20" height="20" viewBox="-0.05 -0.05 0.6 0.6" xmlns="http://www.w3.org/2000/svg"><path d="M0.499 0.294v0.185H0.393V0.306C0.393 0.264 0.378 0.234 0.339 0.234a0.063 0.063 0 0 0 -0.055 0.039L0.28 0.299v0.18H0.174V0.158h0.106v0.046L0.279 0.205h0.001V0.204A0.1 0.1 0 0 1 0.376 0.15c0.07 0 0.122 0.046 0.122 0.145M0.061 0.001C0.024 0.001 0 0.025 0 0.056s0.022 0.055 0.059 0.055h0.001c0.037 0 0.061 -0.025 0.061 -0.055C0.12 0.025 0.098 0.001 0.061 0.001M0.006 0.478H0.112V0.155H0.006z"/></svg>