<svg focusable="false" width="16" height="16" viewBox="0 0 16 16" fill="none"><path d="M3.69 9.253c.21.087.398.004.46-.23.042-.16.142-.567.187-.737.062-.23.038-.312-.132-.512-.37-.437-.606-1.002-.606-1.803 0-2.323 1.737-4.402 4.525-4.402 2.467 0 3.823 1.508 3.823 3.522 0 2.65-1.172 4.886-2.913 4.886-.962 0-1.681-.795-1.451-1.77.277-1.164.811-2.42.811-3.261 0-.752-.404-1.38-1.24-1.38-.983 0-1.772 1.017-1.772 2.379 0 .867.294 1.454.294 1.454l-1.183 5.008c-.351 1.486-.053 3.308-.027 3.492.015.11.155.135.218.053.09-.12 1.261-1.564 1.659-3.008.113-.409.647-2.526.647-2.526.318.609 1.252 1.145 2.244 1.145 2.955 0 4.96-2.693 4.96-6.298C14.193 2.539 11.883 0 8.374 0 4.01 0 1.807 3.13 1.807 5.741c0 1.583.599 2.989 1.883 3.512" fill="currentColor"/></svg>